<?xml version="1.0" encoding="utf-8"?>
<!-- Generator: Adobe Illustrator 19.0.0, SVG Export Plug-In . SVG Version: 6.00 Build 0)  -->
<svg version="1.1" id="Layer_1" xmlns="http://www.w3.org/2000/svg" xmlns:xlink="http://www.w3.org/1999/xlink" x="0px" y="0px"
	 viewBox="0 0 96 96" style="enable-background:new 0 0 96 96;" xml:space="preserve">
<g id="XMLID_1_">
	<path id="XMLID_5_" d="M61.4,20.5c-5.2,0-10.1,2.4-13.4,6.3c-3.3-3.9-8.2-6.3-13.4-6.3c-9.2,0-16.4,7.2-16.4,16.5
		c0,11.4,10.1,20.5,25.5,34.6l4.3,3.9l4.3-3.9C67.7,57.5,77.8,48.4,77.8,37C77.8,27.7,70.6,20.5,61.4,20.5z M49.8,67.7l-0.6,0.6
		L48,69.3l-1.2-1.1l-0.6-0.6C38.9,61,32.7,55.3,28.6,50.2c-4-5-5.8-9-5.8-13.2c0-3.3,1.2-6.3,3.4-8.5c2.2-2.2,5.2-3.4,8.4-3.4
		c3.7,0,7.4,1.7,9.9,4.7l3.5,4.2l3.5-4.2c2.4-2.9,6.2-4.7,9.9-4.7c3.2,0,6.2,1.2,8.4,3.4c2.2,2.2,3.4,5.2,3.4,8.5
		c0,4.2-1.8,8.2-5.8,13.2C63.3,55.3,57.1,61,49.8,67.7z"/>
</g>
</svg>
